<svg version="1.2" xmlns="http://www.w3.org/2000/svg" viewBox="0 0 1024 1024" width="30" height="30">
	<title>search-svgrepo-com-svg</title>
	<style>
		.s0 { fill: #888888 } 
	</style>
	<path id="Layer" fill-rule="evenodd" class="s0" d="m713.7 768l-137.8-137.8c-32.8 22.3-72.4 35.4-115.1 35.4-113.1 0-204.8-91.7-204.8-204.8 0-113.1 91.7-204.8 204.8-204.8 113.1 0 204.8 91.7 204.8 204.8 0 42.7-13.1 82.3-35.4 115.1l137.8 137.8zm-252.9-179.2c70.6 0 128-57.4 128-128 0-70.6-57.4-128-128-128-70.6 0-128 57.4-128 128 0 70.6 57.4 128 128 128z"/>
</svg>